<?xml version="1.0" encoding="utf-8"?>
<!-- Generator: Adobe Illustrator 26.2.1, SVG Export Plug-In . SVG Version: 6.00 Build 0)  -->
<svg version="1.1" id="Layer_1" xmlns="http://www.w3.org/2000/svg" xmlns:xlink="http://www.w3.org/1999/xlink" x="0px" y="0px"
	 viewBox="0 0 965.6 998" style="enable-background:new 0 0 965.6 998;" xml:space="preserve">
<style type="text/css">
	.st0{fill:#569BC4;}
	.st1{fill:#244869;}
</style>
<path class="st0" d="M782.7,420.6v247.9c0,30.5-16.3,58.6-42.6,73.8L525.4,866.3c-26.4,15.2-58.9,15.2-85.3,0L344,810.7v-91.6
	l106.5,61.5c20,11.6,44.7,11.6,64.7,0l155.8-90c20-11.6,32.4-32.9,32.4-56.1V325.6l36.7,21.2C766.5,362,782.7,390.2,782.7,420.6z"/>
<path class="st0" d="M525.4,222.9c-26.4-15.2-58.9-15.2-85.3,0L225.5,346.8c-26.4,15.2-42.6,43.4-42.6,73.8v247.9
	c0,30.5,16.3,58.6,42.6,73.8l36.7,21.2V463.8l0,0v-9.2c0-23.1,12.3-44.5,32.4-56l12.4-7.1l143.5-82.8c20-11.6,44.7-11.6,64.7,0
	L621.6,370v-91.6L525.4,222.9z"/>
<path class="st1" d="M601.3,452.6l-31.1-17.9l-67-38.7c-12.6-7.3-28.1-7.3-40.7,0l-90.3,52.1l-7.8,4.5
	c-12.6,7.3-20.4,20.7-20.4,35.3v113.3c0,14.6,7.8,28,20.4,35.3l31.1,17.9l67,38.7c12.6,7.3,28.1,7.3,40.7,0l98.1-56.6
	c12.6-7.3,20.4-20.7,20.4-35.3V487.9C621.6,473.4,613.9,459.9,601.3,452.6z M442.7,621.2c0,8.4-6.6,15.4-15,16
	c-0.4,0-0.8,0.1-1.1,0.1c-0.4,0-0.8,0-1.1-0.1c-8.4-0.6-14.9-7.6-14.9-16v-88.3c0-8.4,6.6-15.4,14.9-16c0.4,0,0.8,0,1.1,0
	s0.8,0,1.2,0c8.4,0.6,14.9,7.6,14.9,16L442.7,621.2z M498.9,588.7c0,8.4-6.5,15.4-14.9,16c-0.8,0.1-1.5,0.1-2.3,0
	c-8.4-0.6-14.9-7.6-14.9-16v-88.3c0-8.4,6.5-15.4,14.9-16c0.8-0.1,1.5-0.1,2.3,0c8.4,0.6,14.9,7.6,14.9,16V588.7z M555.1,556.3
	c0,8.4-6.5,15.4-14.9,16c-0.4,0-0.8,0.1-1.1,0.1c-0.4,0-0.8,0-1.1-0.1c-8.4-0.6-15-7.6-15-16V468c0-8.4,6.6-15.4,15-16
	c0.4,0,0.8-0.1,1.1-0.1c0.4,0,0.8,0,1.1,0.1c8.4,0.6,14.9,7.6,14.9,16V556.3z"/>
</svg>
